<?xml version="1.0" standalone="no"?>
<!DOCTYPE svg PUBLIC "-//W3C//DTD SVG 20010904//EN"
 "http://www.w3.org/TR/2001/REC-SVG-20010904/DTD/svg10.dtd">
<svg version="1.0" xmlns="http://www.w3.org/2000/svg"
 width="225.000000pt" height="225.000000pt" viewBox="0 0 225.000000 225.000000"
 preserveAspectRatio="xMidYMid meet">

<g transform="translate(0.000000,225.000000) scale(0.100000,-0.100000)"
fill="#000000" stroke="none">
<path d="M971 2174 c-84 -23 -150 -63 -227 -139 -106 -105 -154 -222 -154
-377 0 -79 -6 -92 -31 -61 -14 17 -194 153 -203 153 -2 0 9 -48 25 -107 42
-151 42 -143 -16 -164 -27 -9 -66 -18 -85 -18 -31 -1 -82 -20 -54 -21 24 0 66
-57 105 -139 23 -47 48 -94 57 -104 14 -16 14 -19 -6 -40 -11 -12 -30 -48 -42
-80 -19 -51 -28 -61 -62 -77 l-40 -18 64 -5 c34 -3 86 -9 113 -13 l50 -6 -3
-117 c-2 -64 -5 -122 -7 -128 -2 -7 -22 -16 -45 -19 l-40 -7 0 -58 c0 -48 -4
-60 -20 -69 -30 -16 -34 -52 -11 -98 27 -53 27 -55 -9 -95 -16 -19 -34 -46
-39 -60 -10 -24 -8 -27 22 -32 18 -4 44 -2 60 4 25 10 45 3 105 -34 1 -1 -5
-18 -13 -38 -8 -20 -15 -60 -15 -89 0 -51 0 -52 16 -29 l16 23 29 -28 29 -28
0 30 c0 16 4 34 8 39 9 14 72 58 76 54 1 -2 9 -16 18 -30 10 -15 39 -40 66
-57 l49 -30 12 35 c13 35 14 35 58 30 25 -2 58 -14 74 -26 39 -29 89 -27 118
3 12 13 21 33 19 43 -6 35 20 53 77 53 59 0 85 -19 85 -63 0 -51 94 -76 142
-38 13 11 38 23 54 26 16 4 37 9 46 12 13 3 23 -6 35 -31 9 -20 20 -36 25 -36
20 0 106 62 116 85 l12 25 37 -23 c23 -14 42 -37 48 -55 l11 -32 21 22 22 21
20 -24 20 -24 -5 65 c-4 36 -13 76 -21 88 -8 13 -13 25 -11 26 66 37 90 45
113 34 13 -6 39 -8 59 -4 l36 7 -15 29 c-8 16 -26 41 -40 56 -30 33 -31 43 -5
95 23 45 20 70 -13 96 -18 15 -22 28 -22 76 0 31 -3 57 -6 57 -3 0 -16 55 -29
122 -12 68 -25 128 -27 134 -4 12 93 33 158 35 19 0 27 3 19 6 -39 15 -69 46
-85 90 -10 26 -29 60 -42 74 -17 19 -21 29 -13 34 7 4 33 53 60 109 29 62 59
112 78 128 35 30 32 38 -14 38 -19 0 -63 10 -98 21 l-65 22 13 32 c16 38 59
206 53 211 -3 3 -136 -90 -209 -147 l-28 -21 0 79 c0 43 -7 105 -15 138 -47
181 -199 333 -380 380 -73 19 -212 18 -284 -1z m237 -29 c48 -8 50 -13 21 -84
-18 -41 -26 -51 -45 -51 -23 0 -24 4 -25 63 l-1 62 -12 -60 c-9 -49 -15 -61
-32 -63 -23 -3 -27 6 -39 90 -9 60 -1 63 133 43z m-150 -67 c-3 -63 -5 -73
-21 -73 -14 0 -26 17 -43 59 -13 33 -24 63 -24 67 0 7 28 14 73 18 16 1 18 -7
15 -71z m-78 -20 c25 -93 -12 -105 -66 -23 -21 30 -35 57 -33 60 3 2 20 11 39
19 40 16 40 16 60 -56z m348 51 c25 -10 25 -9 -20 -76 -29 -43 -42 -50 -65
-35 -9 6 -8 22 4 70 17 67 14 66 81 41z m-422 -92 c24 -47 24 -49 7 -62 -20
-15 -26 -12 -76 38 -40 39 -44 34 -8 -12 35 -44 37 -53 16 -71 -12 -10 -20 -9
-40 4 -69 44 -78 46 -36 8 39 -35 42 -42 31 -61 -6 -13 -17 -20 -23 -18 -91
36 -98 40 -92 55 10 28 88 116 134 155 50 40 46 42 87 -36z m490 52 c19 -11
34 -23 34 -27 0 -3 -19 -25 -42 -49 -33 -34 -45 -40 -60 -32 -10 5 -18 16 -18
24 0 16 41 105 48 105 3 0 20 -9 38 -21z m76 -66 c15 -15 28 -30 28 -33 0 -4
-23 -21 -51 -39 -40 -25 -54 -29 -65 -20 -8 6 -14 16 -14 21 0 12 59 98 67 98
4 0 20 -12 35 -27z m-217 -67 c64 -29 127 -100 148 -165 10 -32 20 -120 27
-243 22 -395 28 -460 55 -552 34 -114 34 -184 3 -236 -22 -36 -147 -174 -153
-168 -5 5 40 387 46 393 4 3 19 -28 34 -69 30 -82 29 -135 -1 -182 -27 -40 -6
-27 26 18 40 55 40 114 1 230 -39 116 -51 199 -52 375 -2 156 -14 331 -18 258
l-3 -40 -13 30 c-13 28 -14 26 -9 -35 l6 -65 -22 35 c-12 19 -37 78 -55 132
-18 53 -43 111 -55 128 -77 108 -230 137 -329 63 -84 -64 -83 -171 5 -560 19
-83 34 -170 34 -192 0 -53 -27 -123 -77 -197 -40 -60 -63 -112 -63 -145 0 -10
14 -33 31 -51 28 -30 29 -31 13 -5 -22 36 -14 96 21 149 15 22 29 38 31 35 3
-2 10 -68 17 -146 14 -160 17 -156 -64 -93 -55 42 -89 101 -89 155 0 33 24
223 35 273 4 17 41 44 62 44 8 0 -7 -110 -22 -152 -19 -57 -8 -46 25 25 25 52
30 74 30 140 0 42 -9 119 -21 170 -71 315 -83 431 -50 502 51 113 201 163 328
110 18 -8 56 -35 85 -62 43 -40 48 -42 30 -16 -33 47 -90 91 -147 113 l-50 19
75 0 c58 1 86 -4 125 -23z m295 -37 c64 -121 78 -258 39 -384 -21 -68 -32 -73
-44 -22 -6 24 -4 27 16 28 l24 0 -25 10 c-30 12 -27 9 -35 42 -7 25 -5 27 24
27 17 0 31 5 31 10 0 6 -15 10 -34 10 -28 0 -35 4 -40 26 -4 15 -6 28 -4 30 2
1 26 7 53 12 l50 10 -56 1 c-50 1 -57 4 -62 23 -7 27 -12 22 48 47 l50 20 -45
-6 c-73 -10 -75 -10 -75 17 0 19 10 30 43 48 56 31 48 38 -13 12 -48 -20 -75
-16 -75 14 0 11 79 85 91 86 3 0 21 -28 39 -61z m-820 -54 c44 -28 44 -28 30
-55 -8 -15 -16 -17 -47 -9 -64 15 -71 9 -15 -12 28 -11 52 -24 52 -29 0 -31
-15 -40 -64 -41 l-51 -2 53 -10 c49 -9 53 -12 50 -36 -3 -23 -9 -27 -48 -31
-39 -4 -41 -6 -20 -12 14 -4 35 -8 48 -8 16 0 22 -6 22 -23 0 -19 -8 -26 -41
-36 -31 -9 -44 -10 -53 -1 -19 19 -20 185 -1 254 25 90 24 89 85 51z m404 -30
c19 -14 18 -15 -10 -16 -25 -1 -22 -3 21 -17 46 -15 48 -17 21 -20 l-29 -4 41
-18 c52 -24 56 -42 5 -24 -21 7 -47 13 -57 14 -29 0 -107 41 -103 53 3 11 66
47 82 47 5 0 19 -7 29 -15z m-169 -29 c24 -18 12 -35 -52 -70 -37 -21 -44 -23
-41 -8 2 9 14 22 28 29 25 12 25 13 3 13 -13 0 -23 5 -23 10 0 6 10 10 23 11
12 0 16 3 10 6 -7 2 -13 9 -13 14 0 14 44 11 65 -5z m73 -76 c15 -10 50 -24
77 -30 67 -15 90 -32 113 -82 10 -24 31 -61 45 -82 33 -48 34 -86 2 -151 -28
-59 -61 -97 -107 -125 -51 -31 -71 -25 -136 35 -54 50 -84 98 -106 172 -7 20
-5 21 23 10 24 -9 34 -8 43 1 9 9 4 12 -23 12 -36 0 -59 14 -59 37 0 27 93 5
106 -25 4 -9 10 -41 13 -71 7 -64 26 -82 65 -61 14 7 24 15 22 17 -2 3 -14 -1
-26 -7 -31 -16 -40 -4 -50 69 -10 75 -35 100 -97 101 l-42 0 -7 47 c-8 56 0
71 55 102 23 13 45 30 48 37 7 18 9 18 41 -6z m-559 -85 c74 -37 139 -101 120
-120 -7 -7 -15 -4 -25 9 -8 11 -14 15 -14 10 0 -6 5 -15 11 -21 7 -7 7 -13 1
-17 -5 -3 -21 12 -36 34 -36 54 -44 51 -11 -5 29 -51 24 -84 -6 -38 -10 15
-19 23 -19 16 0 -8 -9 -8 -34 -1 -30 10 -36 17 -50 68 -16 56 -21 100 -11 100
3 0 36 -16 74 -35z m1371 29 c0 -25 -34 -145 -43 -152 -7 -5 -25 -12 -41 -16
-25 -6 -28 -5 -22 11 5 16 5 16 -9 -1 -8 -10 -16 -24 -18 -30 -2 -6 -8 -7 -13
-3 -5 5 3 31 18 60 27 52 22 48 -32 -21 l-21 -27 4 30 c5 26 3 27 -8 12 -16
-22 -25 -22 -25 2 0 29 50 74 122 109 61 30 88 38 88 26z m-337 -189 c42 -158
71 -221 139 -304 49 -62 118 -167 118 -182 0 -18 -211 200 -234 241 -14 25
-26 38 -26 30 0 -8 12 -35 25 -59 14 -24 24 -46 21 -48 -2 -2 -19 14 -38 37
l-35 40 -6 142 c-4 79 -9 175 -12 213 -6 85 0 71 48 -110z m-765 41 c4 -20
-32 -55 -56 -56 -7 0 -19 15 -27 33 -13 30 -12 32 8 39 38 11 72 4 75 -16z
m-118 -37 c0 -5 17 -38 38 -72 31 -51 37 -67 29 -85 -14 -30 -20 -28 -35 10
-6 17 -14 29 -17 27 -2 -3 1 -19 7 -37 7 -17 9 -34 6 -37 -3 -3 -31 13 -62 36
-49 37 -56 46 -56 77 0 27 8 42 36 68 33 32 54 37 54 13z m1054 -18 c47 -41
40 -92 -20 -137 -36 -28 -37 -28 -51 -9 -8 11 -12 30 -10 42 2 12 0 20 -5 17
-20 -13 -19 31 2 76 21 44 25 48 44 38 12 -6 29 -18 40 -27z m-1183 3 c12 -11
19 -31 19 -55 l0 -38 -37 15 c-20 9 -65 25 -101 36 -35 10 -61 22 -57 26 4 4
25 15 48 24 48 20 101 17 128 -8z m1377 7 c24 -9 44 -20 45 -24 1 -4 -42 -22
-95 -41 l-98 -33 0 37 c0 39 19 64 55 73 34 8 49 6 93 -12z m-1068 -67 c20
-104 -3 -198 -60 -249 l-23 -20 17 32 c21 43 20 67 -2 27 -24 -44 -204 -231
-192 -199 14 36 37 71 105 155 76 95 118 185 123 267 2 35 8 61 12 58 4 -3 13
-34 20 -71z m-71 24 c-5 -18 -9 -35 -9 -37 0 -2 -10 9 -21 24 -18 22 -20 29
-8 36 8 5 22 9 31 9 14 0 15 -5 7 -32z m-267 -56 c71 -35 157 -100 158 -119 0
-19 -5 -17 -57 21 -48 34 -133 80 -133 72 0 -2 19 -16 43 -30 23 -14 60 -42
82 -61 l40 -35 -29 -26 c-26 -23 -36 -26 -78 -22 -65 7 -98 39 -152 152 l-43
88 53 -4 c31 -3 78 -17 116 -36z m1436 -49 c-48 -105 -76 -138 -129 -151 -36
-9 -43 -7 -69 15 -17 14 -30 33 -30 43 0 11 25 37 61 64 34 25 57 46 52 46
-11 0 -81 -46 -111 -74 -20 -17 -24 -18 -32 -6 -11 17 14 39 97 90 66 40 118
59 165 60 l37 0 -41 -87z m-608 -163 c14 -26 -5 -52 -60 -80 -75 -38 -161 -35
-219 9 l-24 18 27 35 c25 33 29 35 75 30 58 -5 113 17 144 60 l22 30 12 -40
c6 -22 16 -50 23 -62z m-855 -2 l25 -11 -27 -31 -28 -31 30 26 c34 29 62 42
76 33 5 -3 -8 -18 -30 -34 -52 -38 -64 -60 -16 -30 21 13 36 19 34 14 -2 -5
-12 -30 -23 -57 -15 -38 -23 -47 -44 -47 -30 0 -102 21 -102 29 0 18 42 116
56 132 20 22 17 22 49 7z m1445 -64 c0 -8 7 -28 15 -44 14 -27 14 -30 -3 -39
-9 -5 -33 -12 -53 -16 -34 -6 -36 -5 -52 35 -15 39 -15 41 1 35 9 -3 0 11 -20
32 -39 40 -48 56 -25 47 7 -2 29 2 48 10 33 15 35 15 62 -15 15 -16 27 -36 27
-45z m-260 -42 c96 -70 148 -160 174 -304 l7 -36 -53 -5 c-70 -5 -127 18 -129
53 -1 20 -3 18 -9 -10 -5 -19 -16 -39 -26 -45 -9 -5 -28 -20 -42 -32 -14 -13
-31 -23 -38 -23 -22 0 -41 -41 -49 -103 -6 -55 -16 -70 -31 -46 -3 6 -22 18
-41 25 l-34 15 49 57 c27 31 60 66 72 77 35 30 70 114 70 165 0 25 -14 95 -30
155 -16 61 -30 123 -30 138 l0 28 38 -30 c20 -17 66 -52 102 -79z m-321 12
c-71 -78 -244 -87 -321 -17 -33 30 -18 34 27 8 83 -49 193 -44 271 14 46 34
57 31 23 -5z m-584 -130 c-26 -189 -7 -252 105 -329 22 -15 40 -31 40 -35 0
-10 -67 -40 -74 -33 -3 4 -6 23 -6 44 0 40 -4 46 -60 82 -47 31 -59 59 -61
142 l-2 70 -11 -81 c-11 -79 -12 -81 -34 -71 -17 8 -26 6 -40 -6 -22 -20 -23
-20 -56 -7 l-25 9 23 75 c23 73 57 139 94 182 25 30 114 96 120 90 2 -3 -3
-62 -13 -132z m598 -114 c-23 -217 -33 -264 -49 -248 -3 3 -9 54 -13 111 -8
113 -15 129 -90 217 -27 31 -32 34 -50 22 -13 -7 -21 -8 -21 -2 0 23 -31 7
-62 -32 -65 -81 -71 -98 -78 -193 -6 -89 -6 -90 -13 -35 -22 184 -25 292 -10
329 8 20 17 38 18 39 2 2 24 -8 49 -23 89 -52 229 -41 306 24 19 16 36 28 37
27 1 -1 -9 -107 -24 -236z m-239 48 c-9 -31 -35 -67 -75 -103 -37 -34 -33 -25
25 62 42 64 63 81 50 41z m68 -6 c9 -15 31 -44 49 -64 17 -20 30 -41 28 -47
-4 -12 -92 93 -102 122 -10 26 6 20 25 -11z m26 -89 l49 -61 8 -107 c7 -100 5
-111 -16 -156 -12 -27 -25 -49 -29 -49 -3 0 -14 16 -23 35 -12 26 -17 62 -17
129 0 73 -5 104 -21 140 -11 26 -19 52 -17 58 6 16 58 -54 74 -99 l13 -38 1
31 c0 18 -11 46 -25 65 -13 19 -31 43 -39 54 -19 28 -31 68 -18 64 6 -2 33
-32 60 -66z m-88 33 c0 -8 -18 -36 -40 -62 -31 -38 -40 -56 -39 -84 2 -28 3
-30 6 -9 2 14 18 41 34 60 17 19 28 27 25 19 -30 -92 -30 -89 -11 -163 17 -72
12 -144 -11 -141 -5 1 -21 33 -36 70 -21 53 -27 87 -28 145 l0 77 46 51 c50
55 54 58 54 37z m-432 -126 c32 -20 61 -64 49 -76 -4 -4 -22 5 -41 20 -19 14
-46 26 -60 26 -42 0 -33 46 9 49 6 1 25 -8 43 -19z m1020 -8 c3 -18 -1 -22
-23 -22 -14 0 -42 -12 -61 -26 -39 -31 -49 -28 -35 9 11 27 75 68 101 64 8 -1
16 -12 18 -25z m-1134 -3 c32 -25 26 -39 -18 -39 -37 0 -51 -12 -61 -53 -8
-29 -32 -36 -53 -15 -7 7 -12 36 -12 64 0 50 2 53 28 57 63 9 90 6 116 -14z
m1279 15 c36 -6 37 -7 37 -51 0 -53 -14 -83 -40 -83 -12 0 -21 10 -25 29 -8
38 -22 49 -64 53 -44 4 -49 19 -14 40 31 19 49 21 106 12z m-1188 -64 c18 -19
17 -22 -6 -90 -13 -39 -27 -70 -31 -70 -15 0 -8 51 12 91 20 38 19 66 -1 54
-11 -7 -41 20 -32 29 13 12 40 6 58 -14z m1055 14 c0 -9 -28 -34 -37 -33 -20
3 -21 -4 -3 -43 20 -43 27 -98 12 -98 -6 0 -52 126 -52 143 0 3 7 13 16 21 14
15 64 23 64 10z m-924 -85 c5 -53 3 -68 -10 -82 -23 -23 -50 -23 -41 1 4 9 9
45 11 80 5 108 30 109 40 1z m766 49 c1 -13 2 -41 2 -63 1 -22 5 -50 9 -62 10
-28 -13 -32 -38 -6 -14 14 -16 28 -10 77 3 33 9 64 11 68 10 16 24 8 26 -14z
m-961 2 c32 -18 22 -28 -18 -19 -21 4 -38 7 -38 6 -1 -1 -8 -22 -15 -47 -13
-42 -14 -43 -18 -16 -6 44 16 86 45 86 13 0 33 -5 44 -10z m1199 -16 c13 -33
13 -77 0 -69 -5 3 -12 21 -16 39 -6 33 -7 34 -47 29 -39 -4 -41 -3 -23 11 32
26 75 21 86 -10z m-1074 -29 c8 -46 0 -76 -30 -108 -32 -35 -54 -35 -27 -1 12
15 21 38 21 53 0 46 12 101 21 95 4 -2 11 -20 15 -39z m903 -41 c1 -25 9 -51
22 -68 27 -35 10 -33 -24 2 -34 35 -44 82 -26 124 13 32 13 32 20 8 4 -14 7
-44 8 -66z m-1200 32 c6 -7 8 -27 5 -45 -5 -23 -2 -37 11 -51 16 -17 16 -20 2
-20 -21 0 -47 27 -63 65 -11 26 -10 33 3 48 19 21 27 21 42 3z m570 -48 c11
-34 39 -90 62 -125 46 -70 47 -92 5 -140 -25 -29 -49 -25 -28 5 36 50 36 58 2
108 -41 59 -70 133 -70 179 0 19 2 35 4 35 2 0 14 -28 25 -62z m929 50 c7 -7
12 -22 12 -34 0 -30 -47 -84 -73 -84 -21 0 -21 0 2 16 19 14 22 23 17 52 -8
49 15 77 42 50z m-1326 -33 c-4 -13 -10 -25 -14 -25 -5 0 -12 0 -18 0 -17 0
-11 28 8 39 26 16 31 13 24 -14z m1139 15 c22 -12 25 -36 5 -43 -10 -4 -18 4
-25 24 -11 32 -9 34 20 19z m-1261 -15 c-17 -20 -4 -35 33 -36 18 0 50 -8 72
-18 37 -16 38 -19 18 -25 -13 -4 -28 -4 -34 0 -6 3 -34 9 -63 13 -44 5 -51 9
-54 29 -5 32 4 52 24 52 13 0 14 -3 4 -15z m1385 -25 c0 -35 -1 -35 -51 -41
-29 -4 -57 -10 -63 -13 -6 -4 -21 -4 -34 0 -20 6 -19 9 18 25 22 10 54 18 71
18 39 1 46 9 33 33 -9 17 -8 19 8 16 13 -2 18 -12 18 -38z m-961 -37 c10 -108
46 -204 103 -282 21 -27 23 -35 12 -42 -37 -23 -83 0 -124 62 -14 23 -29 39
-32 36 -2 -3 3 -17 12 -31 15 -23 15 -26 2 -26 -31 0 -47 13 -47 37 0 31 -25
79 -47 92 -16 9 -16 13 -5 31 7 12 14 39 14 60 0 25 7 45 19 56 11 9 19 23 19
30 0 12 43 42 61 44 3 0 9 -30 13 -67z m403 -46 c-13 -29 -38 -69 -55 -89
l-32 -35 25 -36 c32 -48 15 -56 -24 -12 -36 41 -39 70 -10 85 27 15 74 90 96
154 18 50 18 50 21 18 2 -19 -7 -54 -21 -85z m138 73 c15 -17 17 -31 12 -92
-15 -177 -103 -305 -176 -259 -12 8 -10 15 12 40 52 62 106 213 107 299 0 37
18 42 45 12z m69 -46 c11 -4 14 -13 10 -30 -3 -13 1 -37 10 -55 15 -30 15 -33
-4 -46 -26 -18 -50 -65 -50 -96 0 -24 -16 -37 -45 -37 -10 0 -7 17 11 68 13
37 26 97 30 135 7 68 9 72 38 61z m-808 -48 c-18 -28 -56 -35 -56 -12 0 19 53
57 64 46 5 -5 2 -19 -8 -34z m60 18 c13 -51 -46 -105 -97 -89 -21 7 -20 8 12
22 40 16 49 29 49 66 0 35 27 36 36 1z m824 -4 c0 -32 25 -61 63 -71 21 -6 21
-7 -6 -14 -55 -15 -107 35 -93 89 9 37 36 34 36 -4z m80 -26 c0 -8 -8 -14 -18
-14 -25 0 -56 35 -48 55 5 15 9 14 36 -5 16 -12 30 -28 30 -36z m-1082 22 c28
-1 52 -2 52 -4 0 -19 -27 -42 -53 -47 -39 -8 -78 6 -106 36 -16 17 -21 19 -21
7 0 -23 46 -65 80 -72 17 -3 42 -1 56 4 50 19 62 2 19 -26 -36 -24 -88 -20
-140 10 -48 29 -65 51 -65 89 0 23 1 23 63 14 34 -6 86 -10 115 -11z m577 -70
c-10 -15 -14 -33 -9 -50 5 -19 2 -26 -9 -26 -11 0 -15 11 -15 45 0 24 -3 48
-6 53 -3 6 -1 24 6 42 l11 33 19 -36 c17 -34 17 -39 3 -61z m733 27 c-30 -64
-158 -98 -202 -54 -26 27 -16 35 29 22 25 -7 45 -7 63 0 36 14 72 49 72 70 0
11 9 19 23 21 27 4 34 -20 15 -59z m-48 43 c0 -19 -44 -46 -84 -53 -39 -6 -76
11 -76 35 0 14 7 17 38 14 20 -2 48 1 62 7 36 14 60 13 60 -3z m-1455 -76 c-7
-11 -45 -14 -45 -3 0 3 8 15 17 25 15 17 18 17 25 3 5 -8 6 -20 3 -25z m1565
4 c0 -16 -26 -19 -35 -4 -4 6 -4 18 -1 27 5 12 9 13 21 3 8 -7 15 -19 15 -26z
m-1191 -40 c13 -9 30 -32 37 -51 13 -31 13 -38 -5 -78 -11 -25 -24 -45 -29
-45 -5 0 -27 13 -50 30 -43 31 -62 80 -47 117 5 14 10 7 21 -27 8 -25 26 -58
40 -75 l26 -30 -6 40 c-5 29 -4 36 3 25 21 -30 12 34 -9 68 -29 48 -24 55 19
26z m811 11 c0 -3 -6 -16 -14 -28 -15 -23 -19 -45 -17 -87 l2 -25 12 23 c7 12
16 20 19 17 3 -3 14 14 24 39 11 25 22 46 27 46 11 0 9 -88 -3 -110 -10 -19
-70 -60 -87 -60 -14 0 -43 67 -43 101 0 20 10 40 29 60 27 26 51 38 51 24z
m-1015 -67 c-3 -13 -9 -44 -12 -71 -5 -42 -7 -45 -19 -30 -19 25 -17 83 3 105
22 25 37 23 28 -4z m1223 -11 c15 -31 8 -79 -14 -98 -12 -10 -14 -4 -14 34 0
25 -5 58 -10 72 -9 23 -8 26 7 23 10 -2 24 -16 31 -31z"/>
<path d="M1362 1665 c0 -16 2 -22 5 -12 2 9 2 23 0 30 -3 6 -5 -1 -5 -18z"/>
<path d="M1108 1763 c7 -3 16 -2 19 1 4 3 -2 6 -13 5 -11 0 -14 -3 -6 -6z"/>
<path d="M1139 1558 c-38 -10 -59 -40 -58 -81 0 -17 4 -14 15 14 16 38 48 59
90 59 14 0 22 4 19 10 -7 12 -17 11 -66 -2z"/>
<path d="M1190 1500 c-8 -5 -26 -10 -40 -11 l-25 0 23 -11 c19 -10 27 -8 45
10 23 23 22 28 -3 12z"/>
<path d="M1076 1313 c-17 -3 -25 -8 -18 -12 16 -10 83 -1 76 10 -3 5 -11 8
-17 8 -7 -1 -25 -4 -41 -6z"/>
<path d="M1085 1270 c3 -5 12 -10 20 -10 8 0 17 5 20 10 4 6 -5 10 -20 10 -15
0 -24 -4 -20 -10z"/>
<path d="M1780 1127 c0 -2 15 -16 33 -33 l32 -29 -29 33 c-28 30 -36 37 -36
29z"/>
<path d="M810 251 c0 -6 4 -13 10 -16 6 -3 7 1 4 9 -7 18 -14 21 -14 7z"/>
</g>
</svg>
